# xmcd
#
# Track frame offsets:
# 150
# 17040
# 42159
# 61707
# 89210
# 106306
# 129324
# 144787
# 167936
# 184800
# 209104
#
# Disc length: 3056 seconds
#
# Revision: 0
# Processed by: cddbd v1.4PL0 Copyright (c) Steve Scherf et al.
# Submitted via: Axialis_AX_CDPlayer 2.6
#
DISCID=9a0bee0b
DTITLE=Solomon Burke - Don't Give Up On Me
DYEAR=1900
DGENRE=
TTITLE0=Don't Give Up On Me
TTITLE1=Fast Train
TTITLE2=Diamond In Your Mind
TTITLE3=Flesh And Blood
TTITLE4=Soul Searchin'
TTITLE5=Only A Dream
TTITLE6=The Judgement
TTITLE7=Stepchild
TTITLE8=The Other Side Of The Coin
TTITLE9=None Of Us Are Free
TTITLE10=Sit This One Out
EXTD=
EXTT0=
EXTT1=
EXTT2=
EXTT3=
EXTT4=
EXTT5=
EXTT6=
EXTT7=
EXTT8=
EXTT9=
EXTT10=
PLAYORDER=
